<?xml version="1.0" encoding="UTF-8"?>
<svg width="20px" height="20px" viewBox="0 0 20 20" version="1.1" xmlns="http://www.w3.org/2000/svg" xmlns:xlink="http://www.w3.org/1999/xlink">
    <!-- Generator: Sketch 50 (54983) - http://www.bohemiancoding.com/sketch -->
    <title>Combined Shape</title>
    <desc>Created with Sketch.</desc>
    <defs></defs>
    <g id="Page-1" stroke="none" stroke-width="1" fill="none" fill-rule="evenodd">
        <g id="内容详情⻚" transform="translate(-33.000000, -197.000000)" fill="#89A6FF">
            <g id="Group-2" transform="translate(33.000000, 197.000000)">
                <path d="M4,0 L16,0 C18.209139,-4.05812251e-16 20,1.790861 20,4 L20,16 C20,18.209139 18.209139,20 16,20 L4,20 C1.790861,20 2.705415e-16,18.209139 0,16 L0,4 C-2.705415e-16,1.790861 1.790861,4.05812251e-16 4,0 Z M13.4545087,9.7826131 L15.3611983,7.87653072 C16.2137435,7.02398543 16.2137435,5.64193907 15.3611983,4.78939379 L15.2112134,4.63940897 C14.3586682,3.78686368 12.9766218,3.78686368 12.1240765,4.63940897 L10.2173869,6.54549135 C9.59498027,7.16850521 9.44681712,8.0817731 9.76561077,8.84687785 C9.84394292,9.03633236 9.78929258,9.25554094 9.64416557,9.40066795 L9.40066795,9.64355834 C9.25554094,9.78868536 9.03693958,9.84394292 8.84748507,9.76500354 C8.0817731,9.4462099 7.16850521,9.59437304 6.54609857,10.2173869 L4.63940897,12.1234693 C3.78686368,12.9760146 3.78686368,14.3580609 4.63940897,15.2106062 L4.78939379,15.360591 C5.64193907,16.2131363 7.02398543,16.2131363 7.87653072,15.360591 L9.78322032,13.4545087 C10.4062342,12.8308876 10.5543973,11.9164052 10.2343892,11.150086 C10.1548426,10.9606315 10.2101002,10.7414229 10.3552272,10.5962959 L10.5962959,10.3552272 C10.7420302,10.2101002 10.9612387,10.1548426 11.1506932,10.2343892 C11.9164052,10.5537901 12.8308876,10.4062342 13.4545087,9.7826131 Z M12.181763,8.94828459 C12.1265054,8.89302702 12.1070742,8.80437203 12.1398644,8.73393381 C12.2546301,8.48679283 12.2181965,8.18864487 12.0141686,7.98400972 C11.8095334,7.77998178 11.5113855,7.74354822 11.2642445,7.85831394 C11.1931991,7.89110414 11.106973,7.87349459 11.0517154,7.81823702 C10.9788483,7.74476268 10.9788483,7.62574638 11.0517154,7.55287926 L13.0124481,5.59214654 C13.3682826,5.23631211 13.9451473,5.23631211 14.3003745,5.59214654 L14.4078535,5.69962554 C14.7636879,6.05485275 14.7636879,6.63171744 14.4078535,6.98755187 L12.4471207,8.94828459 C12.3742536,9.02115171 12.2552373,9.02115171 12.181763,8.94828459 Z M7.81580812,11.0492865 C7.87167291,11.1051513 7.88624633,11.1919846 7.85163445,11.2636373 C7.73018925,11.5125999 7.76540836,11.8174274 7.97307965,12.0250987 C8.18075094,12.2321627 8.48497116,12.2679891 8.73454104,12.1465439 C8.80558648,12.111932 8.89059812,12.1240765 8.94646291,12.1799413 C9.01811558,12.2522012 9.02297338,12.3730392 8.95132072,12.4446918 L6.98815909,14.4078535 C6.63232466,14.7636879 6.05545997,14.7636879 5.69962554,14.4078535 L5.59275377,14.3003745 C5.23691934,13.94454 5.23691934,13.3682826 5.59275377,13.0124481 L7.55591539,11.0492865 C7.62756806,10.9776338 7.74354822,10.9776338 7.81580812,11.0492865 Z" id="Combined-Shape"></path>
            </g>
        </g>
    </g>
</svg>