<?xml version="1.0" encoding="UTF-8"?>
<svg width="14px" height="14px" viewBox="0 0 14 14" version="1.1" xmlns="http://www.w3.org/2000/svg" xmlns:xlink="http://www.w3.org/1999/xlink">
    <!-- Generator: Sketch 50 (54983) - http://www.bohemiancoding.com/sketch -->
    <title>arrow-circle-up</title>
    <desc>Created with Sketch.</desc>
    <defs></defs>
    <g id="Page-1" stroke="none" stroke-width="1" fill="none" fill-rule="evenodd">
        <g id="5-主题详情⻚" transform="translate(-294.000000, -334.000000)" fill="#F35F5C">
            <path d="M301,334 C297.133767,334 294,337.134374 294,341.000607 C294,344.866233 297.133767,348.000607 301,348.000607 C304.866233,348.000607 308,344.866233 308,341.000607 C308,337.134374 304.866233,334 301,334 L301,334 Z M304.187776,340.248951 L301.357434,343.643663 C301.166883,343.872445 300.815518,343.872445 300.624361,343.643663 L297.794625,340.248951 C297.602861,340.019563 297.766103,339.670625 298.06528,339.670625 L299.154573,339.670625 C299.419159,339.670625 299.633377,339.456407 299.633377,339.191821 L299.633377,336.582371 C299.633377,336.298973 299.862765,336.069584 300.146164,336.069584 L301.850802,336.069584 C302.1342,336.069584 302.363589,336.298973 302.363589,336.582371 L302.363589,339.191821 C302.363589,339.456407 302.577807,339.670625 302.842393,339.670625 L303.917122,339.670625 C304.215691,339.670625 304.379541,340.019563 304.187776,340.248951 Z M299.074762,344.828881 L302.880834,344.828881 C303.231173,344.828881 303.515179,345.112887 303.515179,345.463226 C303.515179,345.813565 303.231173,346.097571 302.880834,346.097571 L299.074762,346.097571 C298.724423,346.097571 298.440417,345.813565 298.440417,345.463226 C298.440417,345.112887 298.724423,344.828881 299.074762,344.828881 Z" id="arrow-circle-up" transform="translate(301.000000, 341.000303) scale(1, -1) translate(-301.000000, -341.000303) "></path>
        </g>
    </g>
</svg>